<svg width="118" height="47" viewBox="0 0 118 47" fill="none" xmlns="http://www.w3.org/2000/svg">
<path d="M69.224 10.2C69.336 9.88 69.512 9.64 69.752 9.48C70.008 9.32 70.288 9.24 70.592 9.24C70.976 9.24 71.304 9.36 71.576 9.6C71.864 9.84 72.008 10.16 72.008 10.56C72.008 10.704 71.968 10.912 71.888 11.184L66.728 25.464C66.6 25.784 66.384 26.032 66.08 26.208C65.792 26.384 65.472 26.472 65.12 26.472C64.768 26.472 64.44 26.384 64.136 26.208C63.832 26.032 63.624 25.784 63.512 25.464L59.528 14.16L55.472 25.464C55.344 25.784 55.128 26.032 54.824 26.208C54.536 26.384 54.216 26.472 53.864 26.472C53.512 26.472 53.184 26.384 52.88 26.208C52.592 26.032 52.392 25.784 52.28 25.464L47.12 11.184C47.04 10.944 47 10.736 47 10.56C47 10.16 47.144 9.84 47.432 9.6C47.736 9.36 48.088 9.24 48.488 9.24C48.808 9.24 49.096 9.32 49.352 9.48C49.608 9.64 49.792 9.88 49.904 10.2L53.984 21.936L58.184 10.272C58.296 9.952 58.48 9.704 58.736 9.528C58.992 9.336 59.272 9.24 59.576 9.24C59.88 9.24 60.16 9.336 60.416 9.528C60.688 9.704 60.88 9.96 60.992 10.296L65.072 22.08L69.224 10.2Z" fill="white"/>
<path d="M82.2976 23.088C82.5696 23.088 82.7856 23.192 82.9456 23.4C83.1216 23.608 83.2096 23.888 83.2096 24.24C83.2096 24.736 82.9136 25.152 82.3216 25.488C81.7776 25.792 81.1616 26.04 80.4736 26.232C79.7856 26.408 79.1296 26.496 78.5056 26.496C76.6176 26.496 75.1216 25.952 74.0176 24.864C72.9136 23.776 72.3616 22.288 72.3616 20.4C72.3616 19.2 72.6016 18.136 73.0816 17.208C73.5616 16.28 74.2336 15.56 75.0976 15.048C75.9776 14.536 76.9696 14.28 78.0736 14.28C79.1296 14.28 80.0496 14.512 80.8336 14.976C81.6176 15.44 82.2256 16.096 82.6576 16.944C83.0896 17.792 83.3056 18.792 83.3056 19.944C83.3056 20.632 83.0016 20.976 82.3936 20.976H75.3136C75.4096 22.08 75.7216 22.896 76.2496 23.424C76.7776 23.936 77.5456 24.192 78.5536 24.192C79.0656 24.192 79.5136 24.128 79.8976 24C80.2976 23.872 80.7456 23.696 81.2416 23.472C81.7216 23.216 82.0736 23.088 82.2976 23.088ZM78.1456 16.392C77.3296 16.392 76.6736 16.648 76.1776 17.16C75.6976 17.672 75.4096 18.408 75.3136 19.368H80.7376C80.7056 18.392 80.4656 17.656 80.0176 17.16C79.5696 16.648 78.9456 16.392 78.1456 16.392Z" fill="white"/>
<path d="M92.5036 14.28C93.5276 14.28 94.4316 14.528 95.2156 15.024C95.9996 15.52 96.6076 16.224 97.0396 17.136C97.4876 18.048 97.7116 19.112 97.7116 20.328C97.7116 21.544 97.4876 22.624 97.0396 23.568C96.6076 24.496 95.9916 25.216 95.1916 25.728C94.4076 26.24 93.5116 26.496 92.5036 26.496C91.6556 26.496 90.8956 26.312 90.2236 25.944C89.5676 25.576 89.0636 25.064 88.7116 24.408V25.008C88.7116 25.44 88.5756 25.784 88.3036 26.04C88.0316 26.296 87.6716 26.424 87.2236 26.424C86.7756 26.424 86.4156 26.296 86.1436 26.04C85.8876 25.784 85.7596 25.44 85.7596 25.008V10.656C85.7596 10.24 85.8956 9.904 86.1676 9.648C86.4556 9.392 86.8236 9.264 87.2716 9.264C87.7196 9.264 88.0796 9.384 88.3516 9.624C88.6236 9.864 88.7596 10.192 88.7596 10.608V16.272C89.1116 15.632 89.6156 15.144 90.2716 14.808C90.9276 14.456 91.6716 14.28 92.5036 14.28ZM91.7116 24.168C92.6556 24.168 93.3916 23.832 93.9196 23.16C94.4476 22.488 94.7116 21.544 94.7116 20.328C94.7116 19.128 94.4476 18.208 93.9196 17.568C93.4076 16.928 92.6716 16.608 91.7116 16.608C90.7516 16.608 90.0076 16.936 89.4796 17.592C88.9676 18.232 88.7116 19.16 88.7116 20.376C88.7116 21.592 88.9676 22.528 89.4796 23.184C90.0076 23.84 90.7516 24.168 91.7116 24.168Z" fill="white"/>
<path d="M108.406 17.616C109.414 17.872 110.182 18.36 110.71 19.08C111.254 19.784 111.526 20.664 111.526 21.72C111.526 23.176 110.99 24.336 109.918 25.2C108.846 26.064 107.398 26.496 105.574 26.496C104.534 26.496 103.534 26.336 102.574 26.016C101.614 25.696 100.798 25.248 100.126 24.672C99.7577 24.352 99.5737 23.976 99.5737 23.544C99.5737 23.192 99.6697 22.896 99.8617 22.656C100.07 22.4 100.31 22.272 100.582 22.272C100.742 22.272 100.886 22.304 101.014 22.368C101.142 22.416 101.318 22.504 101.542 22.632C102.214 23.08 102.854 23.424 103.462 23.664C104.07 23.904 104.734 24.024 105.454 24.024C106.51 24.024 107.294 23.816 107.806 23.4C108.318 22.968 108.574 22.32 108.574 21.456C108.574 20.608 108.302 19.984 107.758 19.584C107.23 19.168 106.406 18.96 105.286 18.96H103.918C103.55 18.96 103.262 18.84 103.054 18.6C102.862 18.344 102.766 18.056 102.766 17.736C102.766 17.4 102.862 17.112 103.054 16.872C103.262 16.632 103.55 16.512 103.918 16.512H104.878C107.07 16.512 108.166 15.688 108.166 14.04C108.166 13.272 107.934 12.68 107.47 12.264C107.006 11.848 106.366 11.64 105.55 11.64C104.382 11.64 103.134 12.104 101.806 13.032C101.582 13.16 101.406 13.256 101.278 13.32C101.15 13.368 101.006 13.392 100.846 13.392C100.574 13.392 100.334 13.272 100.126 13.032C99.9337 12.776 99.8377 12.472 99.8377 12.12C99.8377 11.88 99.8777 11.68 99.9577 11.52C100.054 11.344 100.198 11.168 100.39 10.992C101.062 10.432 101.862 9.992 102.79 9.672C103.734 9.336 104.694 9.168 105.67 9.168C107.334 9.168 108.654 9.576 109.63 10.392C110.622 11.208 111.118 12.296 111.118 13.656C111.102 14.584 110.854 15.4 110.374 16.104C109.91 16.792 109.254 17.296 108.406 17.616Z" fill="white"/>
<path d="M112.884 30.672C112.308 30.704 111.868 30.624 111.564 30.432C111.244 30.24 111.084 29.944 111.084 29.544C111.084 28.888 111.484 28.528 112.284 28.464L112.932 28.416C113.476 28.384 113.884 28.216 114.156 27.912C114.428 27.608 114.564 27.144 114.564 26.52V15.744C114.564 15.28 114.7 14.928 114.972 14.688C115.26 14.448 115.62 14.328 116.052 14.328C116.484 14.328 116.844 14.448 117.132 14.688C117.42 14.928 117.564 15.28 117.564 15.744V26.304C117.564 28.992 116.22 30.432 113.532 30.624L112.884 30.672ZM116.028 12.192C115.484 12.192 115.052 12.048 114.732 11.76C114.412 11.456 114.252 11.064 114.252 10.584C114.252 10.104 114.412 9.72 114.732 9.432C115.052 9.144 115.484 9 116.028 9C116.556 9 116.98 9.144 117.3 9.432C117.636 9.72 117.804 10.104 117.804 10.584C117.804 11.064 117.644 11.456 117.324 11.76C117.004 12.048 116.572 12.192 116.028 12.192Z" fill="white"/>
<path d="M51.368 46.536C50.5573 46.536 49.784 46.424 49.048 46.2C48.3227 45.976 47.7413 45.6667 47.304 45.272C47.1013 45.1013 47 44.8827 47 44.616C47 44.424 47.0533 44.264 47.16 44.136C47.2667 43.9973 47.3947 43.928 47.544 43.928C47.6933 43.928 47.8747 43.9973 48.088 44.136C49.0373 44.84 50.12 45.192 51.336 45.192C52.1893 45.192 52.8453 45.032 53.304 44.712C53.7627 44.392 53.992 43.9333 53.992 43.336C53.992 42.8667 53.7787 42.5147 53.352 42.28C52.9253 42.0453 52.2427 41.8213 51.304 41.608C50.408 41.416 49.672 41.1973 49.096 40.952C48.52 40.7067 48.0667 40.376 47.736 39.96C47.416 39.5333 47.256 38.9947 47.256 38.344C47.256 37.6933 47.432 37.1173 47.784 36.616C48.1467 36.104 48.648 35.7093 49.288 35.432C49.928 35.144 50.6587 35 51.48 35C52.2373 35 52.936 35.1067 53.576 35.32C54.216 35.5333 54.76 35.848 55.208 36.264C55.4213 36.4453 55.528 36.664 55.528 36.92C55.528 37.1013 55.4693 37.2613 55.352 37.4C55.2453 37.5387 55.1173 37.608 54.968 37.608C54.8293 37.608 54.6533 37.5387 54.44 37.4C53.9493 37.0267 53.4853 36.76 53.048 36.6C52.6213 36.4293 52.104 36.344 51.496 36.344C50.6747 36.344 50.0347 36.5147 49.576 36.856C49.1173 37.1867 48.888 37.6507 48.888 38.248C48.888 38.76 49.0907 39.1493 49.496 39.416C49.9013 39.672 50.552 39.9067 51.448 40.12C52.3867 40.3333 53.144 40.5573 53.72 40.792C54.3067 41.016 54.7707 41.3307 55.112 41.736C55.464 42.1307 55.64 42.6427 55.64 43.272C55.64 43.912 55.4587 44.4827 55.096 44.984C54.744 45.4747 54.2427 45.8587 53.592 46.136C52.952 46.4027 52.2107 46.536 51.368 46.536Z" fill="#019AA4"/>
<path d="M58.4873 46.408C58.2313 46.408 58.0286 46.3387 57.8793 46.2C57.7406 46.0507 57.6713 45.8533 57.6713 45.608V35.928C57.6713 35.6827 57.7406 35.4907 57.8793 35.352C58.0286 35.2027 58.2313 35.128 58.4873 35.128H61.6233C63.4472 35.128 64.8606 35.6187 65.8633 36.6C66.8659 37.5813 67.3672 38.968 67.3672 40.76C67.3672 42.552 66.8659 43.944 65.8633 44.936C64.8606 45.9173 63.4472 46.408 61.6233 46.408H58.4873ZM61.5273 45.032C64.3006 45.032 65.6872 43.608 65.6872 40.76C65.6872 37.9227 64.3006 36.504 61.5273 36.504H59.3193V45.032H61.5273Z" fill="#019AA4"/>
<path d="M78.0088 45.16C78.1901 45.3307 78.2808 45.5173 78.2808 45.72C78.2808 45.9227 78.2007 46.0987 78.0407 46.248C77.8914 46.3973 77.7154 46.472 77.5127 46.472C77.3101 46.472 77.1234 46.3867 76.9527 46.216L71.2567 41.08V45.656C71.2567 45.912 71.1821 46.1147 71.0327 46.264C70.8941 46.4133 70.6914 46.488 70.4247 46.488C70.1794 46.488 69.9821 46.4133 69.8327 46.264C69.6834 46.1147 69.6087 45.912 69.6087 45.656V35.88C69.6087 35.6347 69.6834 35.4373 69.8327 35.288C69.9821 35.128 70.1794 35.048 70.4247 35.048C70.6807 35.048 70.8834 35.1227 71.0327 35.272C71.1821 35.4213 71.2567 35.624 71.2567 35.88V40.264L76.7127 35.288C76.8621 35.1387 77.0381 35.064 77.2407 35.064C77.4434 35.064 77.6194 35.1387 77.7687 35.288C77.9181 35.4373 77.9927 35.608 77.9927 35.8C77.9927 36.0027 77.9021 36.1893 77.7207 36.36L72.9527 40.616L78.0088 45.16Z" fill="#019AA4"/>
<rect width="8" height="34" rx="2" fill="#0F99B7"/>
<path fill-rule="evenodd" clip-rule="evenodd" d="M13.6444 16.3714L26.3604 32.9873C26.7043 33.5921 27.3546 34 28.1001 34H32.1001H32.6001C32.6001 34 33.003 33.8657 33.3911 33.5275C33.5121 33.4252 33.6207 33.3088 33.7145 33.1808C33.9351 32.8851 34.1001 32.4976 34.1001 32C34.1001 31.6134 33.9904 31.2525 33.8005 30.9466L33.8025 30.941L33.7682 30.8962C33.7181 30.8207 33.663 30.7487 33.6033 30.6808L20.8401 14C20.4946 13.4012 19.8411 13 19.1001 13H15.1001C15.0178 13 14.9367 13.005 14.857 13.0146C14.0782 13.1066 13.1001 13.6458 13.1001 15C13.1001 15.3626 13.1966 15.7026 13.3653 15.9958L13.3601 16L13.3943 16.0447C13.4664 16.1622 13.5503 16.2716 13.6444 16.3714Z" fill="#095871"/>
<path fill-rule="evenodd" clip-rule="evenodd" d="M20.4557 16.3714L7.73972 32.9873C7.39576 33.5921 6.74551 34 6 34H2H1.5C1.5 34 1.09713 33.8657 0.708968 33.5275C0.588032 33.4252 0.479409 33.3088 0.385637 33.1808C0.165043 32.8851 0 32.4976 0 32C0 31.6134 0.109673 31.2525 0.299602 30.9466L0.297607 30.941L0.331887 30.8962C0.382002 30.8207 0.437117 30.7487 0.496761 30.6808L13.2665 14.0019C13.6 13.5 14.2589 13 15 13L19 13C19.0823 13 19.1482 13.0019 19.2431 13C20 13 21 13.5 21 15C21 15.3626 20.9035 15.7026 20.7348 15.9958L20.74 16L20.7058 16.0447C20.6337 16.1622 20.5498 16.2716 20.4557 16.3714Z" fill="#45D8E1"/>
<rect x="27" y="13" width="8" height="34" rx="2" fill="#0F99B7"/>
<rect x="27" width="8" height="8" rx="2" fill="#45D8E1"/>
</svg>
